<svg xmlns="http://www.w3.org/2000/svg" fill="none" viewBox="0 0 128 128">
  <path d="M81.504 9.465c.973 1.207 1.469 2.836 1.472 4.93.003 2.093-.492 3.722-1.46 4.931-.929 1.209-2.257 1.821-3.978 1.821-1.721 0-3.067-.612-4.006-1.821-.939-1.209-1.411-2.838-1.414-4.93-.003-2.093.488-3.723 1.446-4.93.958-1.207 2.298-1.814 4.005-1.814 1.707 0 3.033.607 3.935 1.813ZM15.684 122.665c-1.956 0-3.563-.697-4.834-2.09-1.271-1.393-1.898-3.186-1.898-5.38 0-2.194.627-3.987 1.898-5.38 1.271-1.393 2.878-2.09 4.834-2.09 1.955 0 3.562.697 4.833 2.09 1.271 1.393 1.898 3.186 1.898 5.38 0 2.194-.627 3.987-1.898 5.38-1.271 1.393-2.878 2.09-4.833 2.09ZM84.285 122.665c-1.956 0-3.563-.697-4.834-2.09-1.271-1.393-1.898-3.186-1.898-5.38 0-2.194.627-3.987 1.898-5.38 1.271-1.393 2.878-2.09 4.834-2.09 1.955 0 3.562.697 4.833 2.09 1.271 1.393 1.898 3.186 1.898 5.38 0 2.194-.627 3.987-1.898 5.38-1.271 1.393-2.878 2.09-4.833 2.09Z" fill="#FF5D01"/>
  <path fill-rule="evenodd" clip-rule="evenodd" d="M85.124 64.474c-.027-3.213-.053-6.427-.08-9.64l-11.738-.076-.077 11.816-5.866-.038c-.026-3.958-.052-7.915-.078-11.873-5.857-.038-11.715-.076-17.572-.114l-.075 11.548-5.866-.038L43.696 54.2c-5.857-.038-11.715-.076-17.572-.114l-.075 11.548-5.866-.038.075-11.473c-5.857-.038-11.715-.076-17.572-.114l-.152 23.28c-.026 3.958-.052 7.915-.078 11.873l23.469.153.075-11.548 5.866.038c.027 3.958.053 7.915.08 11.873l23.469.152.075-11.473 5.866.038-.076 11.738 23.469.152.152-23.28c.027-3.958.053-7.915.08-11.873l-5.867-.038Z" fill="#FF5D01"/>
  <path fill-rule="evenodd" clip-rule="evenodd" d="m86.954 36.488-43.143-.28c-.078 12.06-.155 24.122-.233 36.183l5.866.038c.052-8.04.104-16.081.156-24.122l5.866.038-.155 23.96 5.866.038.155-23.96 5.866.038-.155 23.96 5.866.038.155-23.96 5.866.038-.156 24.122 5.866.038c.078-12.06.155-24.122.233-36.183l-.076-11.586-5.944-.038.076 11.586-5.944-.038.076-11.586-5.944-.038c.026 3.862.052 7.723.078 11.586l-5.944-.039c-.026-3.862-.052-7.723-.078-11.585l-5.944-.039.076 11.549-5.944-.038-.076-11.549-5.944-.038.076 11.549-5.944-.038-.076-11.549-5.944-.038.076 11.549-5.944-.038-.076-11.549-5.944-.038.076 11.548-5.944-.038-.076-11.548-5.944-.038.076 11.548-5.944-.038-.076-11.548-5.944-.038.076 11.548-5.944-.038-.076-11.548-5.944-.038.076 11.548-5.944-.038-.076-11.548-5.944-.038.076 11.548-5.944-.038-.076-11.548-5.944-.038.076 11.548-5.944-.039-.076-11.548-5.944-.038.076 11.548-5.944-.038-.076-11.548L2.88 24.901l.076 11.548 5.944.038-.076-11.548 5.944.038.076 11.548 5.944.038-.076-11.548 5.944.038.076 11.548 5.944.038-.076-11.548 5.944.038.076 11.548 5.944.038-.076-11.548 5.944.038.076 11.548 5.944.038-.076-11.548 5.944.038.076 11.548 5.944.038-.076-11.548 5.944.038.076 11.548 5.944.038-.076-11.548 5.944.038.076 11.548 5.944.038-.076-11.548 5.944.038.076 11.548 5.944.038-.076-11.548 5.944.038.076 11.548 5.944.038-.076-11.548 5.944.038.076 11.548 5.944.038-.076-11.548 5.944.038.076 11.548Z" fill="#FF5D01"/>
</svg>
